<svg width="110" height="80" viewBox="0 0 110 80" fill="none" xmlns="http://www.w3.org/2000/svg">
<path d="M20.6877 79.6859C12.7842 78.5412 6.95079 75.3924 2.67589 69.9634C1.64647 68.6561 0 66.2019 0 65.9748C0 65.8895 0.89979 65.3638 3.14978 64.1342C3.88271 63.7337 5.57269 62.806 6.90529 62.0725C9.64497 60.5646 11.4627 59.5708 13.5513 58.4387C15 57.3827 15.0487 57.3827 16.5 59.4321C16.8843 59.9748 17.6356 60.8971 18.3535 61.5163C19.4129 62.4299 20.0424 62.7549 21.6947 63.241C23.5161 63.7769 24.0182 63.8294 26.4633 63.7398C30.5131 63.5914 32.8826 62.5663 34.4536 60.2833C35.9074 58.1707 35.859 59.2719 35.859 28.3032V0H72.9295H110V7.77117V15.5424L100.006 15.6021L90.011 15.6618L89.9495 44C89.901 66.3225 89.5234 78.9262 89.2856 79.0687C88.9352 79.2787 73.8322 79.2758 73.2601 79.0687C72.9135 78.9432 73.1718 69.744 73.1718 44.3502C73.1718 28.9065 73.1056 16.1081 73.0247 15.9091C72.894 15.5876 71.7916 15.5475 63.0908 15.5475H53.304L53.303 36.5251C53.3019 58.4967 53.275 59.1523 52.2158 62.9567C49.8257 71.5418 42.291 77.7547 32.2246 79.4407C29.0668 79.9696 23.4678 80.0886 20.6877 79.6859Z" fill="white"/>
</svg>